<svg width="4007" height="725" viewBox="0 0 4007 725" fill="none" xmlns="http://www.w3.org/2000/svg">
<path d="M336.529 237.392C303.247 200.974 261.67 182.765 211.764 182.765C155.552 182.765 111.715 205.256 80.2544 250.205V192.207H0V556.959H85.6496V498.387C117.111 538.852 159.16 559.084 211.764 559.084C264.367 559.084 303.247 540.875 336.529 504.457C369.777 468.039 386.435 423.528 386.435 370.924C386.435 318.321 369.777 273.81 336.529 237.392ZM266.391 447.132C245.686 467.837 220.295 478.155 190.183 478.155C160.07 478.155 134.645 467.938 113.975 447.469C93.2704 427.035 82.952 401.745 82.952 371.599C82.952 341.453 93.2704 315.421 113.975 294.716C134.645 274.046 160.037 263.694 190.183 263.694C220.329 263.694 245.686 274.046 266.391 294.716C287.061 315.421 297.413 340.812 297.413 370.924C297.413 401.036 287.061 426.462 266.391 447.132ZM0 724.988H85.6496V642.98H0V724.988Z" fill="white"/>
<path d="M511.2 126.113C495.925 126.113 482.774 120.617 471.747 109.59C460.721 98.5639 455.224 85.2106 455.224 69.4632C455.224 53.7158 460.721 40.3626 471.747 29.336C482.774 18.3095 495.925 12.8131 511.2 12.8131C526.475 12.8131 540.301 18.3095 551.327 29.336C562.354 40.3626 567.85 53.7158 567.85 69.4632C567.85 85.2106 562.354 98.5639 551.327 109.59C540.301 120.617 526.948 126.113 511.2 126.113ZM554.362 549.641H468.713V192.205H554.362V549.641Z" fill="white"/>
<path d="M851.778 372.272L966.427 549.641H869.987L798.5 439.039L727.687 549.641H636.642L752.64 367.552L639.34 192.206H735.78L806.593 302.134L873.359 192.206H963.73L851.778 372.272Z" fill="white"/>
<path d="M1183.59 182.765C1237.98 182.765 1282.29 200.637 1316.44 236.38C1350.6 272.124 1365.68 316.972 1361.63 370.924C1361.19 382.153 1359.84 394.292 1357.58 407.342H1081.08C1089.17 431.182 1104.24 450.268 1126.26 464.667C1148.28 479.065 1173.91 486.248 1203.14 486.248C1232.38 486.248 1259.12 481.527 1284.75 472.085V546.27C1260.47 554.801 1231.7 559.084 1198.42 559.084C1139.51 559.084 1090.75 541.313 1052.08 505.806C1013.4 470.298 994.078 425.315 994.078 370.924C994.078 316.533 1012.19 272.124 1048.37 236.38C1084.55 200.637 1129.63 182.765 1183.59 182.765ZM1078.38 339.227H1279.35C1275.74 314.038 1265.09 293.806 1247.32 278.531C1229.55 263.255 1207.63 255.601 1181.56 255.601C1155.5 255.601 1134.46 263.356 1115.81 278.868C1097.16 294.379 1084.68 314.51 1078.38 339.227Z" fill="white"/>
<path d="M1516.71 549.641H1431.06V10.1161H1516.71V549.641Z" fill="white"/>
<path d="M1935.52 343.947L2087.93 549.641H1986.77L1930.8 474.108C1918.66 500.174 1899.34 520.878 1872.8 536.153C1846.26 551.429 1815.91 559.083 1781.75 559.083C1733.2 559.083 1692.83 545.595 1660.7 518.619C1628.53 491.642 1612.48 457.012 1612.48 414.76C1612.48 354.974 1643.26 305.945 1704.87 267.739C1650.92 233.109 1623.94 190.857 1623.94 140.951C1623.94 98.6994 1638.34 64.6419 1667.1 38.7784C1695.87 12.9149 1734.11 0 1781.75 0C1829.4 0 1866.96 12.9149 1895.73 38.7784C1924.49 64.6419 1938.89 98.6994 1938.89 140.951C1938.89 202.558 1894.58 254.487 1806.03 296.739C1766.92 315.622 1739.37 333.393 1723.42 350.017C1707.47 366.641 1699.48 385.086 1699.48 405.318C1699.48 425.551 1707.77 443.996 1724.43 457.922C1741.05 471.849 1761.28 478.829 1785.13 478.829C1808.97 478.829 1827.71 471.983 1844.14 458.259C1860.56 444.535 1868.75 428.248 1868.75 409.365C1868.75 397.225 1862.24 382.152 1849.19 364.18L1834.36 343.947H1935.52ZM1832.67 98.4634C1819.86 86.324 1802.9 80.2544 1781.75 80.2544C1760.61 80.2544 1743.55 86.324 1730.5 98.4634C1717.45 110.603 1710.94 126.552 1710.94 146.346C1710.94 175.11 1734.11 202.322 1780.4 227.949C1806.94 214.461 1825.49 201.546 1836.04 189.171C1846.6 176.796 1851.89 162.532 1851.89 146.346C1851.89 126.552 1845.48 110.603 1832.67 98.4634Z" fill="#E76F51"/>
<path d="M2292.28 559.084C2236.54 559.084 2190.34 541.212 2153.69 505.468C2117.03 469.725 2098.72 424.877 2098.72 370.924C2098.72 316.972 2117.03 272.124 2153.69 236.38C2190.34 200.637 2236.54 182.765 2292.28 182.765C2309.81 182.765 2327.11 185.024 2344.21 189.509V272.461C2332.07 266.627 2315.88 263.694 2295.65 263.694C2264.19 263.694 2237.89 274.046 2216.74 294.716C2195.6 315.387 2185.05 341.014 2185.05 371.599C2185.05 402.183 2195.6 427.001 2216.74 447.469C2237.89 467.938 2264.19 478.155 2295.65 478.155C2315.44 478.155 2331.63 475.457 2344.21 470.062V552.34C2327.11 556.824 2309.81 559.084 2292.28 559.084Z" fill="white"/>
<path d="M2589.69 182.765C2644.99 182.765 2690.95 200.637 2727.6 236.38C2764.26 272.124 2782.57 316.972 2782.57 370.924C2782.57 424.877 2764.26 469.725 2727.6 505.468C2690.95 541.212 2644.99 559.084 2589.69 559.084C2534.39 559.084 2487.75 541.212 2451.1 505.468C2414.44 469.725 2396.13 424.877 2396.13 370.924C2396.13 316.972 2414.44 272.124 2451.1 236.38C2487.75 200.637 2533.95 182.765 2589.69 182.765ZM2665.89 294.716C2645.22 274.046 2619.8 263.694 2589.69 263.694C2559.57 263.694 2534.15 274.046 2513.48 294.716C2492.81 315.387 2482.46 341.014 2482.46 371.599C2482.46 402.183 2492.81 427.001 2513.48 447.469C2534.15 467.938 2559.57 478.155 2589.69 478.155C2619.8 478.155 2645.22 467.938 2665.89 447.469C2686.57 427.001 2696.92 401.711 2696.92 371.599C2696.92 341.486 2686.57 315.387 2665.89 294.716Z" fill="white"/>
<path d="M3129.88 242.786V10.1161H3215.53V549.641H3135.28V491.642C3103.82 536.592 3060.18 559.083 3004.44 559.083C2954.1 559.083 2912.28 540.874 2879 504.456C2845.72 468.038 2829.1 423.527 2829.1 370.924C2829.1 318.32 2845.72 273.809 2879 237.391C2912.28 200.973 2954.1 182.764 3004.44 182.764C3054.79 182.764 3098.42 202.76 3129.88 242.786ZM3025.35 478.154C3055.46 478.154 3080.89 467.937 3101.56 447.469C3122.23 427 3132.58 401.71 3132.58 371.598C3132.58 341.486 3122.23 315.386 3101.56 294.716C3080.89 274.045 3055.46 263.693 3025.35 263.693C2995.24 263.693 2970.49 274.045 2949.81 294.716C2929.14 315.386 2918.79 340.811 2918.79 370.924C2918.79 401.036 2929.14 426.461 2949.81 447.132C2970.49 467.802 2995.67 478.154 3025.35 478.154Z" fill="white"/>
<path d="M3477.89 182.765C3532.28 182.765 3576.59 200.637 3610.74 236.38C3644.9 272.124 3659.98 316.972 3655.93 370.924C3655.49 382.153 3654.14 394.292 3651.88 407.342H3375.38C3383.47 431.182 3398.54 450.268 3420.56 464.667C3442.58 479.065 3468.21 486.248 3497.44 486.248C3526.68 486.248 3553.42 481.527 3579.05 472.085V546.27C3554.77 554.801 3526 559.084 3492.72 559.084C3433.81 559.084 3385.05 541.313 3346.38 505.806C3307.7 470.298 3288.38 425.315 3288.38 370.924C3288.38 316.533 3306.49 272.124 3342.67 236.38C3378.85 200.637 3423.93 182.765 3477.89 182.765ZM3372.68 339.227H3573.65C3570.04 314.038 3559.39 293.806 3541.62 278.531C3523.85 263.255 3501.93 255.601 3475.86 255.601C3449.8 255.601 3428.76 263.356 3410.11 278.868C3391.43 294.379 3378.98 314.51 3372.68 339.227Z" fill="white"/>
<path d="M3669.42 562.454H4006.62V643.383H3669.42V562.454Z" fill="white"/>
</svg>
